#!OML:ASF H:\ManfredETheater\Project 1\Capture day 1\Session 1\subject.ASF
:FULLY-SPECIFIED
:DEGREES
169
root 1.14838 17.2933 -30.7871 -169.659 1.32161 174.456
lowerback 8.57836 -2.71504 -9.63558
upperback -4.38308 -4.72376 0.601455
thorax -8.72511 -1.66484 6.77874
lowerneck -23.0104 1.63217 0.670849
upperneck 11.5882 2.24723 -1.28408
head 7.30061 0.993577 -0.247743
rclavicle 1.44119e-015 2.80286e-014
rhumerus -76.9054 4.33437 -88.3113
rradius 109.147
rwrist -9.52606
rhand -13.1784 9.29562
rfingers 7.12502
rthumb 12.9212 -20.2843
lclavicle 1.44119e-015 2.80286e-014
lhumerus -29.4199 -21.5869 94.1052
lradius 132.41
lwrist 19.7089
lhand -22.8408 -13.3449
lfingers 7.12502
lthumb 3.59688 16.6045
rfemur -53.7203 -3.78118 14.4053
rtibia 46.1345
rfoot -12.1156 -3.86357
rtoes -33.984
lfemur 4.69605 -6.4967 -30.1022
ltibia 35.1701
lfoot -3.47906 -5.85971
ltoes -20.4494
170
root 1.18327 17.3489 -31.3064 -169.779 1.5689 174.376
lowerback 8.25502 -2.80833 -9.54307
upperback -4.33948 -4.79934 0.581566
thorax -8.48016 -1.72536 6.68721
lowerneck -23.0197 1.74912 0.682036
upperneck 11.5064 2.39732 -1.26083
head 7.27606 1.06937 -0.222987
rclavicle 4.78574e-014 -3.47873e-015
rhumerus -77.4984 3.50571 -87.4213
rradius 109.056
rwrist -9.58468
rhand -13.6315 8.96475
rfingers 7.12502
rthumb 12.4844 -20.6423
lclavicle 4.78574e-014 -3.47873e-015
lhumerus -30.205 -22.762 93.9313
lradius 132.691
lwrist 17.6728
lhand -22.7587 -13.9301
lfingers 7.12502
lthumb 3.6761 16.0179
rfemur -52.6513 -3.24321 14.1083
rtibia 41.0968
rfoot -11.6208 -4.0099
rtoes -34.5687
lfemur 6.34917 -6.27712 -30.149
ltibia 33.8913
lfoot 1.27343 -6.688
ltoes -17.8058
171
root 1.21688 17.3931 -31.8272 -169.863 1.71363 174.228
lowerback 7.87864 -2.9207 -9.45488
upperback -4.3286 -4.89629 0.547046
thorax -8.23805 -1.7938 6.58141
lowerneck -22.9827 1.82725 0.64443
upperneck 11.5053 2.51442 -1.2653
head 7.2705 1.12321 -0.20394
rclavicle 3.20913e-014 2.32578e-014
rhumerus -78.0656 2.68971 -86.5062
rradius 108.919
rwrist -9.6148
rhand -13.899 8.72858
rfingers 7.12502
rthumb 12.2265 -20.8941
lclavicle 3.20913e-014 2.32578e-014
lhumerus -31.0959 -23.85 93.878
lradius 132.758
lwrist 15.86
lhand -22.7893 -14.4291
lfingers 7.12502
lthumb 3.64657 15.5194
rfemur -51.5661 -2.84657 13.7531
rtibia 36.4716
rfoot -11.2167 -4.41164
rtoes -35.2294
lfemur 7.72382 -6.22687 -30.2777
ltibia 33.0044
lfoot 5.73366 -7.33923
ltoes -14.1264
172
root 1.24956 17.4244 -32.3474 -169.908 1.77055 173.992
lowerback 7.46972 -3.04299 -9.40989
upperback -4.35044 -5.00861 0.498544
thorax -8.00922 -1.86428 6.48437
lowerneck -22.9203 1.87183 0.564298
upperneck 11.5926 2.60659 -1.31221
head 7.29015 1.15771 -0.195209
rclavicle 1.07219e-014 -3.55825e-014
rhumerus -78.609 1.9056 -85.5627
rradius 108.768
rwrist -9.62484
rhand -13.9623 8.59284
rfingers 7.12502
rthumb 12.1654 -21.0334
lclavicle 1.07219e-014 -3.55825e-014
lhumerus -32.0505 -24.8425 93.9482
lradius 132.616
lwrist 14.4671
lhand -22.8736 -14.8051
lfingers 7.12502
lthumb 3.56514 15.1449
rfemur -50.543 -2.56926 13.3227
rtibia 32.42
rfoot -10.9098 -5.04381
rtoes -35.9374
lfemur 8.79312 -6.33349 -30.5155
ltibia 32.5958
lfoot 9.57195 -7.8512
ltoes -9.92449
173
root 1.28162 17.4424 -32.8652 -169.922 1.75803 173.667
lowerback 7.05026 -3.1667 -9.43192
upperback -4.39409 -5.12877 0.439045
thorax -7.79373 -1.93242 6.41274
lowerneck -22.8755 1.88824 0.449527
upperneck 11.7736 2.67959 -1.40098
head 7.34393 1.17592 -0.196689
rclavicle -1.46355e-014 2.60408e-014
rhumerus -79.1094 1.16599 -84.5974
rradius 108.626
rwrist -9.59229
rhand -13.822 8.57658
rfingers 7.12502
rthumb 12.3007 -21.0416
lclavicle -1.46355e-014 2.60408e-014
lhumerus -33.0187 -25.7283 94.1303
lradius 132.268
lwrist 13.5717
lhand -22.9732 -15.047
lfingers 7.12502
lthumb 3.469 14.9045
rfemur -49.6574 -2.395 12.8265
rtibia 29.1092
rfoot -10.6956 -5.85536
rtoes -36.5962
lfemur 9.54543 -6.56317 -30.864
ltibia 32.7349
lfoot 12.5384 -8.23238
ltoes -5.69121
174
root 1.31292 17.4463 -33.3794 -169.918 1.70371 173.266
lowerback 6.63801 -3.27774 -9.52153
upperback -4.44527 -5.23863 0.370637
thorax -7.58889 -1.99036 6.3679
lowerneck -22.8592 1.87731 0.302801
upperneck 12.0245 2.73368 -1.52424
head 7.42568 1.17909 -0.206335
rclavicle -2.12078e-014 4.96962e-015
rhumerus -79.5528 0.467051 -83.6289
rradius 108.51
rwrist -9.51469
rhand -13.5376 8.67826
rfingers 7.12502
rthumb 12.575 -20.9233
lclavicle -2.12078e-014 4.96962e-015
lhumerus -33.9615 -26.5033 94.4141
lradius 131.719
lwrist 13.1501
lhand -23.0303 -15.1429
lfingers 7.12502
lthumb 3.41388 14.8095
rfemur -48.969 -2.32016 12.3052
rtibia 26.6873
rfoot -10.6015 -6.73666
rtoes -37.0252
lfemur 9.98993 -6.86583 -31.3082
ltibia 33.4581
lfoot 14.5266 -8.46741
ltoes -1.96168
175
root 1.3433 17.436 -33.8886 -169.924 1.62462 172.834
lowerback 6.2775 -3.36687 -9.6511
upperback -4.48637 -5.32742 0.304758
thorax -7.40403 -2.03501 6.34888
lowerneck -22.8914 1.84654 0.135184
upperneck 12.3157 2.77545 -1.67433
head 7.529 1.17191 -0.222564
rclavicle 1.97294e-014 1.78906e-015
rhumerus -79.9125 -0.190289 -82.6793
rradius 108.438
rwrist -9.3635
rhand -13.1595 8.8609
rfingers 7.12502
rthumb 12.9395 -20.7179
lclavicle 1.97294e-014 1.78906e-015
lhumerus -34.847 -27.1474 94.7825
lradius 130.976
lwrist 13.1051
lhand -23.0225 -15.1272
lfingers 7.12502
lthumb 3.42135 14.8251
rfemur -48.5026 -2.35827 11.8458
rtibia 25.2425
rfoot -10.6132 -7.56792
rtoes -37.3299
lfemur 10.1581 -7.1893 -31.7944
ltibia 34.7608
lfoot 15.5697 -8.52604
ltoes 0.81977
176
root 1.37251 17.4114 -34.3923 -169.967 1.54917 172.415
lowerback 5.99798 -3.42118 -9.77949
upperback -4.50413 -5.37781 0.246416
thorax -7.24728 -2.06067 6.33904
lowerneck -22.9628 1.7982 -0.0481828
upperneck 12.6088 2.80354 -1.83372
head 7.63949 1.15614 -0.240876
rclavicle -1.08586e-014 2.78299e-014
rhumerus -80.1778 -0.816246 -81.7796
rradius 108.419
rwrist -9.12383
rhand -12.7477 9.10458
rfingers 7.12502
rthumb 13.3364 -20.4486
lclavicle -1.08586e-014 2.78299e-014
lhumerus -35.6698 -27.6484 95.2212
lradius 130.052
lwrist 13.3012
lhand -22.9375 -15.0382
lfingers 7.12502
lthumb 3.50345 14.9128
rfemur -48.2373 -2.52849 11.5432
rtibia 24.7563
rfoot -10.7227 -8.19648
rtoes -37.4797
lfemur 10.0933 -7.47841 -32.2721
ltibia 36.6019
lfoot 15.8243 -8.37453
ltoes 2.4986
177
root 1.40046 17.373 -34.8903 -170.076 1.49937 172.066
lowerback 5.8139 -3.42987 -9.87399
upperback -4.47605 -5.37453 0.214884
thorax -7.10602 -2.0639 6.34043
lowerneck -23.0582 1.73676 -0.241846
upperneck 12.8521 2.8209 -1.99866
head 7.73747 1.13466 -0.260898
rclavicle -1.11568e-013 -2.3059e-014
rhumerus -80.3059 -1.42185 -80.9433
rradius 108.442
rwrist -8.79665
rhand -12.3437 9.36709
rfingers 7.12502
rthumb 13.7257 -20.1602
lclavicle -1.11568e-013 -2.3059e-014
lhumerus -36.4094 -27.9888 95.7187
lradius 128.962
lwrist 13.5784
lhand -22.7836 -14.922
lfingers 7.12502
lthumb 3.65207 15.0264
rfemur -48.1119 -2.83825 11.4847
rtibia 25.1282
rfoot -10.8648 -8.49859
rtoes -37.6712
lfemur 9.84636 -7.68479 -32.6782
ltibia 38.9098
lfoot 15.5077 -8.02037
ltoes 3.15414
178
root 1.42749 17.3229 -35.382 -170.267 1.49307 171.838
lowerback 5.77116 -3.38767 -9.89099
upperback -4.41398 -5.31366 0.221086
thorax -7.02284 -2.04197 6.34508
lowerneck -23.138 1.66701 -0.442207
upperneck 13.016 2.82789 -2.15237
head 7.80609 1.11026 -0.277963
rclavicle 1.9953e-014 1.43125e-014
rhumerus -80.3061 -2.0059 -80.1978
rradius 108.496
rwrist -8.38883
rhand -11.9913 9.64337
rfingers 7.12502
rthumb 14.0654 -19.8607
lclavicle 1.9953e-014 1.43125e-014
lhumerus -37.113 -28.1482 96.2804
lradius 127.732
lwrist 13.788
lhand -22.5804 -14.8276
lfingers 7.12502
lthumb 3.84832 15.1174
rfemur -48.0764 -3.25986 11.7004
rtibia 26.2173
rfoot -10.8469 -8.29417
rtoes -38.1923
lfemur 9.44863 -7.76916 -32.9496
ltibia 41.6011
lfoot 14.8463 -7.55461
ltoes 3.04196
